<svg width="28" height="17" viewBox="0 0 28 17" fill="none" xmlns="http://www.w3.org/2000/svg">
<path d="M5.92914 3.2042C10.3869 -1.06807 17.6144 -1.06807 22.0722 3.2042L22.8098 3.9111C22.9213 4.018 22.9216 4.1915 22.8103 4.2986C22.8101 4.2988 22.81 4.299 22.8098 4.2992L20.773 6.25109C20.6617 6.35779 20.4815 6.35779 20.3702 6.25109L19.6316 5.54319C16.5217 2.56279 11.4796 2.56279 8.3698 5.54319L7.57874 6.3013C7.46742 6.408 7.28724 6.408 7.17592 6.3013L5.13917 4.3493C5.02764 4.2424 5.02741 4.06889 5.13864 3.96179C5.13882 3.96159 5.13899 3.9614 5.13917 3.9613L5.92914 3.2042ZM25.6655 6.64789L27.4997 8.4058C27.7228 8.6196 27.7232 8.9666 27.5008 9.1809C27.5004 9.1813 27.5001 9.18159 27.4997 9.18199L20.1353 16.24C19.9126 16.4533 19.5523 16.4533 19.3296 16.24L14.1014 11.2294C14.0457 11.176 13.9557 11.176 13.9 11.2294L8.6719 16.24C8.4492 16.4533 8.0889 16.4533 7.86624 16.24L0.501589 9.1819C0.278529 8.96809 0.278059 8.621 0.500529 8.4067C0.500879 8.40639 0.501229 8.406 0.501589 8.4057L2.33578 6.64789C2.4471 6.54119 2.62728 6.54119 2.7386 6.64789L8.1683 11.8515C8.224 11.9049 8.3141 11.9049 8.3697 11.8515L13.5977 6.8409C13.8204 6.6275 14.1807 6.6275 14.4034 6.8409L19.6317 11.8515C19.6873 11.9049 19.7774 11.9049 19.8331 11.8515L25.2627 6.64789C25.374 6.5413 25.5542 6.5413 25.6655 6.64789Z" fill="#3B99FC"/>
</svg>
